<svg xmlns="http://www.w3.org/2000/svg" id="b4440849-c984-4bba-bf15-8c53a611ead8" data-name="Layer 1" viewBox="0 0 173 279">
  <path id="b0629ad5-6db5-4c98-a4af-d5674c9e298e" fill="#008eb0" stroke="#000" stroke-miterlimit="10" stroke-width="6" d="M156 5l-22 43c10-2 20-6 31-7l-20 18-31 25 51 6-36 25c-12 9-24 14-35 23 20 1 40-2 60-2a189 189 0 0 1-18 13l-35 23-21 13h52l-26 14-47 24 25 5c-15 8-32 14-48 22l14 7-24 8-21 9c3-11 8-21 14-30l22-39-34 2c9-10 21-20 32-29 6-5 13-10 18-16-15 0-31 4-47 3l55-41c8-6 16-11 22-17l-24 1-26 2 22-13 19-11 41-22c-15-1-30-4-45-7 21-11 44-20 66-31l-20-4a220 220 0 0 1 36-17z" data-name="Layer 1-2"/>
</svg>
