<svg xmlns="http://www.w3.org/2000/svg" id="ab967b07-e2c0-4cd8-9000-9c4c3e9710f9" data-name="Layer 1" viewBox="0 0 175 232">
  <defs>
    <style>
      .b4230c15-a1b9-4dbe-9bf7-119a16403102{opacity:.44}.aa063ed7-985a-4278-81aa-ad2d3cc4f05a{fill:none;stroke:#393634;stroke-miterlimit:10}
    </style>
  </defs>
  <g class="b4230c15-a1b9-4dbe-9bf7-119a16403102">
    <path d="M901 564c14 14 30 22 49 25 25 4 47-4 65-21 13-12 20-26 23-43 4-22 0-42-13-59a78 78 0 0 0-58-33c-22-3-41 4-58 18a73 73 0 0 0-25 43c-5 24-1 46 15 66 3 5 2 10 1 15s-1 8 1 12l6 12v8c-1 5 2 9 3 14" class="aa063ed7-985a-4278-81aa-ad2d3cc4f05a" transform="translate(-873 -424)"/>
    <path d="M1008 439a95 95 0 0 0-28-12c-11-3-22-3-33-1-15 2-28 8-40 18-17 13-28 29-32 50s0 41 7 62c3 9 6 18 3 29-3 6 3 15 10 16 4 1 8 4 12 0M1017 446c18 14 28 33 30 56 2 18-2 36-12 52-4 6-4 13-5 20v16c-3 7-8 10-14 8a74 74 0 0 0-36 0l-10 3" class="aa063ed7-985a-4278-81aa-ad2d3cc4f05a" transform="translate(-873 -424)"/>
    <path d="M883 540c1 6 5 12 9 18s5 12 2 19 1 15 9 16" class="aa063ed7-985a-4278-81aa-ad2d3cc4f05a" transform="translate(-873 -424)"/>
    <path d="M903 599c-9-1-16-9-14-19 2-6 1-13-2-18-1-2-1-3-3-3M951 611c3-5 1-10-4-10l-14-2c-4-1-10-1-14 1s-7 0-10 1M1028 560a29 29 0 0 0-6 20c0 6-4 10-8 14M945 652l-4 1a27 27 0 0 1-3-12v-2c5-4 0-8 1-11 0-2-2-2-2-2l-5 1c2 4-1 8-1 12s0 8 6 6M1027 574c0 8-1 16-8 22M903 604c-2 3-4 7-2 11s7 7 12 7 13 1 19 4M915 602c-2 6-2 13 0 19M982 637c-1 5 3 11-3 16-3-3-3-3-4-7 0-2 1-4-1-4s-5 2-5 2v8c1 2 3 3 7 0" class="aa063ed7-985a-4278-81aa-ad2d3cc4f05a" transform="translate(-873 -424)"/>
    <path d="M919 604v9c-1 3 0 5 1 8M955 613c1 5-1 11 1 17M1005 606c1 6-2 11-1 17M988 634c1 8 0 9-5 13M953 643l-1 5c0 3 0 6-4 7-1-1-3-1-3-4s-1-5 1-8 3-3 7-1" class="aa063ed7-985a-4278-81aa-ad2d3cc4f05a" transform="translate(-873 -424)"/>
    <path d="M1012 605c1 4 0 8-1 13s-2 5-6 5l-9 1c-3 0-2 2-4 3s-1 7-5 6M964 614a18 18 0 0 0-1 11l-1 5M927 625c-1 4 0 8 4 11M969 653c-2 1-3 3-5 2s-4 0-4-3-1-7 2-9 4-1 6 1M1016 599l2 8M953 653c2 2 4 3 7 1" class="aa063ed7-985a-4278-81aa-ad2d3cc4f05a" transform="translate(-873 -424)"/>
    <path d="M994 625c-3-2-6-3-9 0 2 2 1 5 1 8M1016 612c0 2 0 4-3 5M1014 602a14 14 0 0 1-12 3M985 626a13 13 0 0 0-5 1M944 640c0 1-1 3 2 3M954 642c2-1 4 1 6 3" class="aa063ed7-985a-4278-81aa-ad2d3cc4f05a" transform="translate(-873 -424)"/>
  </g>
</svg>
